<svg width="36" height="37" viewBox="0 0 36 37" fill="none" xmlns="http://www.w3.org/2000/svg">
<g clip-path="url(#clip0_24_5748)">
<path d="M28 0.367188H8C3.58172 0.367188 0 3.94891 0 8.36719V28.3672C0 32.7855 3.58172 36.3672 8 36.3672H28C32.4183 36.3672 36 32.7855 36 28.3672V8.36719C36 3.94891 32.4183 0.367188 28 0.367188Z" fill="url(#paint0_linear_24_5748)"/>
<path d="M4.76369 6.85642C6.50517 5.45129 9.61989 6.47051 14.1986 8.112C12.0693 7.94691 10.5247 9.91293 11.5304 11.7859L16.2686 20.9211C17.6283 23.5155 17.7298 26.9697 16.1951 29.0613C14.0738 31.9523 10.5614 32.8425 8.6113 32.1554C7.57858 31.7914 7.24713 31.1439 7.24713 31.1439C7.24713 31.1439 8.64794 32.394 10.4491 31.4004C13.027 29.9783 13.5802 25.5517 11.5967 22.8274L5.04844 13.6576C3.34182 11.2582 2.73002 8.49735 4.76369 6.85642Z" fill="url(#paint1_linear_24_5748)"/>
<path d="M19.764 6.66716C21.5329 5.29673 24.6269 6.37732 29.1723 8.10899C27.0466 7.90184 25.4635 9.83694 26.432 11.7294L30.9887 20.9565C32.2969 23.5773 32.33 27.0328 30.7543 29.0936C28.5762 31.9422 25.047 32.7628 23.1108 32.0372C22.0855 31.653 21.7669 30.9989 21.7669 30.9989C21.7669 30.9989 23.1427 32.2765 24.9632 31.3187C27.5687 29.9479 28.2093 25.5331 26.28 22.7701L19.9143 13.4726C18.2554 11.04 17.6983 8.26758 19.764 6.66716Z" fill="url(#paint2_linear_24_5748)"/>
</g>
<defs>
<linearGradient id="paint0_linear_24_5748" x1="0" y1="0.367188" x2="36" y2="36.3672" gradientUnits="userSpaceOnUse">
<stop stop-color="#1F96FF"/>
<stop offset="1" stop-color="#0062F5"/>
</linearGradient>
<linearGradient id="paint1_linear_24_5748" x1="7.58813" y1="5.70694" x2="11.6779" y2="32.3354" gradientUnits="userSpaceOnUse">
<stop stop-color="#EBF4FF"/>
<stop offset="1" stop-color="#ADD3FF"/>
</linearGradient>
<linearGradient id="paint2_linear_24_5748" x1="22.6106" y1="5.57374" x2="26.1732" y2="32.2778" gradientUnits="userSpaceOnUse">
<stop stop-color="#EBF4FF"/>
<stop offset="1" stop-color="#ADD3FF"/>
</linearGradient>
<clipPath id="clip0_24_5748">
<rect width="36" height="36" fill="white" transform="translate(0 0.367188)"/>
</clipPath>
</defs>
</svg>
