<svg width="30" height="29" viewBox="0 0 30 29" fill="none" xmlns="http://www.w3.org/2000/svg">
<path d="M14.9974 10.5912V11.2578C14.9974 11.8778 14.9974 12.1872 15.0481 12.4445C15.2587 13.5032 16.0854 14.3298 17.144 14.5405C17.4014 14.5912 17.7107 14.5912 18.3307 14.5912H26.1974C26.9281 14.5912 27.2921 14.5912 27.6001 14.4152C27.8441 14.2765 28.0881 13.9911 28.1867 13.7271C28.3107 13.3965 28.2614 13.0858 28.1627 12.4658C27.2561 6.80449 22.7841 2.3325 17.1227 1.42583C16.5027 1.32716 16.1921 1.27782 15.8614 1.40182C15.5974 1.50049 15.312 1.74449 15.1734 1.98849C14.9974 2.29649 14.9974 2.66049 14.9974 3.39116V5.25782M10.9974 1.8685C5.58806 3.56716 1.66406 8.62182 1.66406 14.5912C1.66406 21.9552 7.6334 27.9245 14.9974 27.9245C20.9681 27.9245 26.0214 24.0005 27.7201 18.5912" stroke="#384C75" stroke-width="2" stroke-linecap="round" stroke-linejoin="round"/>
</svg>
